<svg width="197" height="69" viewBox="0 0 197 69" fill="none" xmlns="http://www.w3.org/2000/svg">
<path d="M60.9609 34H56.8828C56.7891 34 56.7422 33.9414 56.7422 33.8242L56.8125 9.0918C56.8125 8.99805 56.8594 8.95117 56.9531 8.95117H61.3477C61.4414 8.95117 61.5234 8.99805 61.5938 9.0918L64.8809 13.8379L68.1504 9.0918C68.2207 8.99805 68.3086 8.95117 68.4141 8.95117H72.8262C72.9316 8.95117 72.9844 8.99805 72.9844 9.0918L73.0547 33.8242C73.0547 33.9414 73.0078 34 72.9141 34H68.8359C68.7422 34 68.6953 33.9414 68.6953 33.8242L68.6602 15.4551L64.8809 20.9395L61.1367 15.4551L61.1016 33.8242C61.1016 33.9414 61.0547 34 60.9609 34ZM82.1953 34.3516C80.918 34.3516 79.7402 34.0234 78.6621 33.3672C77.5957 32.7109 76.7402 31.8379 76.0957 30.748C75.4629 29.6465 75.1465 28.4395 75.1465 27.127V25.4746C75.1465 25.3457 75.2051 25.2812 75.3223 25.2812H79.3652C79.459 25.2812 79.5059 25.3457 79.5059 25.4746V27.127C79.5059 27.9121 79.7695 28.5918 80.2969 29.166C80.8242 29.7285 81.457 30.0098 82.1953 30.0098C82.9453 30.0098 83.584 29.7227 84.1113 29.1484C84.6387 28.5625 84.9023 27.8887 84.9023 27.127C84.9023 26.248 84.3281 25.4805 83.1797 24.8242C82.9922 24.707 82.7461 24.5664 82.4414 24.4023C82.1484 24.2266 81.7969 24.0273 81.3867 23.8047C80.9766 23.582 80.5781 23.3652 80.1914 23.1543C79.8047 22.9316 79.4297 22.7207 79.0664 22.5215C77.7539 21.748 76.7754 20.7812 76.1309 19.6211C75.498 18.4492 75.1816 17.1367 75.1816 15.6836C75.1816 14.3477 75.5098 13.1406 76.166 12.0625C76.8223 10.9961 77.6777 10.1523 78.7324 9.53125C79.7988 8.89844 80.9531 8.58203 82.1953 8.58203C83.4727 8.58203 84.6445 8.89844 85.7109 9.53125C86.7773 10.1758 87.627 11.0312 88.2598 12.0977C88.9043 13.1641 89.2266 14.3594 89.2266 15.6836V18.6367C89.2266 18.7305 89.1797 18.7773 89.0859 18.7773H85.043C84.9492 18.7773 84.9023 18.7305 84.9023 18.6367L84.8672 15.6836C84.8672 14.8398 84.6035 14.1543 84.0762 13.627C83.5488 13.0996 82.9219 12.8359 82.1953 12.8359C81.457 12.8359 80.8242 13.1172 80.2969 13.6797C79.7695 14.2422 79.5059 14.9102 79.5059 15.6836C79.5059 16.4688 79.6699 17.125 79.998 17.6523C80.3379 18.1797 80.9531 18.6836 81.8438 19.1641C81.9375 19.2109 82.1543 19.3281 82.4941 19.5156C82.834 19.7031 83.209 19.9141 83.6191 20.1484C84.041 20.3711 84.4219 20.5762 84.7617 20.7637C85.1016 20.9395 85.3066 21.0449 85.377 21.0801C86.5723 21.748 87.5156 22.5684 88.207 23.541C88.9102 24.5137 89.2617 25.709 89.2617 27.127C89.2617 28.498 88.9453 29.7285 88.3125 30.8184C87.668 31.9082 86.8125 32.7695 85.7461 33.4023C84.6797 34.0352 83.4961 34.3516 82.1953 34.3516ZM98.3848 34.3516C97.1191 34.3516 95.9473 34.0234 94.8691 33.3672C93.791 32.7109 92.9297 31.832 92.2852 30.7305C91.6523 29.6172 91.3359 28.4043 91.3359 27.0918L91.4062 9.0918C91.4062 8.99805 91.4531 8.95117 91.5469 8.95117H95.5898C95.6836 8.95117 95.7305 8.99805 95.7305 9.0918V27.0918C95.7305 27.9004 95.9883 28.5918 96.5039 29.166C97.0195 29.7285 97.6465 30.0098 98.3848 30.0098C99.1582 30.0098 99.8027 29.7285 100.318 29.166C100.834 28.5918 101.092 27.9004 101.092 27.0918V9.0918C101.092 8.99805 101.139 8.95117 101.232 8.95117H105.275C105.369 8.95117 105.416 8.99805 105.416 9.0918L105.486 27.0918C105.486 28.416 105.17 29.6348 104.537 30.748C103.893 31.8496 103.037 32.7285 101.971 33.3848C100.904 34.0293 99.709 34.3516 98.3848 34.3516ZM112.535 34H108.457C108.363 34 108.316 33.9414 108.316 33.8242L108.387 9.0918C108.387 8.99805 108.434 8.95117 108.527 8.95117H112.922C113.016 8.95117 113.098 8.99805 113.168 9.0918L116.455 13.8379L119.725 9.0918C119.795 8.99805 119.883 8.95117 119.988 8.95117H124.4C124.506 8.95117 124.559 8.99805 124.559 9.0918L124.629 33.8242C124.629 33.9414 124.582 34 124.488 34H120.41C120.316 34 120.27 33.9414 120.27 33.8242L120.234 15.4551L116.455 20.9395L112.711 15.4551L112.676 33.8242C112.676 33.9414 112.629 34 112.535 34ZM131.871 34H127.828C127.711 34 127.652 33.9414 127.652 33.8242L127.723 9.0918C127.723 8.99805 127.77 8.95117 127.863 8.95117H134.789C136.992 8.95117 138.732 9.625 140.01 10.9727C141.299 12.3086 141.943 14.1309 141.943 16.4395C141.943 18.127 141.609 19.5977 140.941 20.8516C140.262 22.0938 139.383 23.0547 138.305 23.7344C137.227 24.4141 136.055 24.7539 134.789 24.7539H132.047V33.8242C132.047 33.9414 131.988 34 131.871 34ZM134.789 13.2227L132.047 13.2578V20.3945H134.789C135.551 20.3945 136.213 20.0312 136.775 19.3047C137.338 18.5664 137.619 17.6113 137.619 16.4395C137.619 15.502 137.367 14.7344 136.863 14.1367C136.359 13.5273 135.668 13.2227 134.789 13.2227Z" fill="#094067"/>
<path d="M33.1934 27H28.668C28.6315 27 28.6133 26.9772 28.6133 26.9316L28.627 17.3135C28.627 17.277 28.6452 17.2588 28.6816 17.2588H33.1797C33.2161 17.2588 33.2344 17.2816 33.2344 17.3271V18.8926C33.2344 18.929 33.2161 18.9473 33.1797 18.9473H30.3086V21.1348H33.1797C33.2161 21.1348 33.2344 21.153 33.2344 21.1895L33.248 22.7754C33.248 22.8118 33.2298 22.8301 33.1934 22.8301H30.3086V25.2773H33.1934C33.2298 25.2773 33.248 25.3001 33.248 25.3457V26.9453C33.248 26.9818 33.2298 27 33.1934 27ZM36.8711 27.1367C36.3743 27.1367 35.9163 27.0091 35.4971 26.7539C35.0824 26.4987 34.7497 26.1592 34.499 25.7354C34.2529 25.307 34.1299 24.8376 34.1299 24.3271V23.6846C34.1299 23.6344 34.1527 23.6094 34.1982 23.6094H35.7705C35.807 23.6094 35.8252 23.6344 35.8252 23.6846V24.3271C35.8252 24.6325 35.9277 24.8968 36.1328 25.1201C36.3379 25.3389 36.584 25.4482 36.8711 25.4482C37.1628 25.4482 37.4111 25.3366 37.6162 25.1133C37.8213 24.8854 37.9238 24.6234 37.9238 24.3271C37.9238 23.9854 37.7005 23.6868 37.2539 23.4316C37.181 23.3861 37.0853 23.3314 36.9668 23.2676C36.8529 23.1992 36.7161 23.1217 36.5566 23.0352C36.3971 22.9486 36.2422 22.8643 36.0918 22.7822C35.9414 22.6956 35.7956 22.6136 35.6543 22.5361C35.1439 22.2354 34.7633 21.8594 34.5127 21.4082C34.2666 20.9525 34.1436 20.4421 34.1436 19.877C34.1436 19.3574 34.2712 18.888 34.5264 18.4688C34.7816 18.054 35.1143 17.7259 35.5244 17.4844C35.9391 17.2383 36.388 17.1152 36.8711 17.1152C37.3678 17.1152 37.8236 17.2383 38.2383 17.4844C38.653 17.735 38.9834 18.0677 39.2295 18.4824C39.4801 18.8971 39.6055 19.362 39.6055 19.877V21.0254C39.6055 21.0618 39.5872 21.0801 39.5508 21.0801H37.9785C37.9421 21.0801 37.9238 21.0618 37.9238 21.0254L37.9102 19.877C37.9102 19.5488 37.8076 19.2822 37.6025 19.0771C37.3975 18.8721 37.1536 18.7695 36.8711 18.7695C36.584 18.7695 36.3379 18.8789 36.1328 19.0977C35.9277 19.3164 35.8252 19.5762 35.8252 19.877C35.8252 20.1823 35.889 20.4375 36.0166 20.6426C36.1488 20.8477 36.388 21.0436 36.7344 21.2305C36.7708 21.2487 36.8551 21.2943 36.9873 21.3672C37.1195 21.4401 37.2653 21.5221 37.4248 21.6133C37.5889 21.6999 37.737 21.7796 37.8691 21.8525C38.0013 21.9209 38.0811 21.9619 38.1084 21.9756C38.5732 22.2354 38.9401 22.5544 39.209 22.9326C39.4824 23.3109 39.6191 23.7757 39.6191 24.3271C39.6191 24.8604 39.4961 25.3389 39.25 25.7627C38.9993 26.1865 38.6667 26.5215 38.252 26.7676C37.8372 27.0137 37.377 27.1367 36.8711 27.1367ZM43.29 27H41.7109C41.6699 27 41.6494 26.9772 41.6494 26.9316V18.9473H39.8311C39.7855 18.9473 39.7627 18.9245 39.7627 18.8789L39.7764 17.3135C39.7764 17.277 39.7946 17.2588 39.8311 17.2588H45.1494C45.1995 17.2588 45.2246 17.277 45.2246 17.3135V18.8789C45.2246 18.9245 45.2064 18.9473 45.1699 18.9473H43.3311L43.3447 26.9316C43.3447 26.9772 43.3265 27 43.29 27ZM46.291 27H44.7051C44.6686 27 44.6504 26.9818 44.6504 26.9453V25.3594C44.6504 25.3229 44.6686 25.3047 44.7051 25.3047H46.291C46.3275 25.3047 46.3457 25.3229 46.3457 25.3594V26.9453C46.3457 26.9818 46.3275 27 46.291 27Z" fill="#094067"/>
<path d="M152.87 27H147.647C147.602 27 147.579 26.9772 147.579 26.9316V25.3457C147.579 25.3275 147.588 25.3092 147.606 25.291L151.065 20.5469C151.129 20.4603 151.182 20.3509 151.223 20.2188C151.268 20.082 151.291 19.9635 151.291 19.8633C151.291 19.5898 151.193 19.3392 150.997 19.1113C150.801 18.8835 150.553 18.7695 150.252 18.7695C149.965 18.7695 149.721 18.8789 149.521 19.0977C149.32 19.3164 149.22 19.5944 149.22 19.9316V20.6152C149.22 20.6608 149.197 20.6836 149.151 20.6836H147.579C147.543 20.6836 147.524 20.6608 147.524 20.6152V19.9316C147.524 19.4076 147.654 18.9313 147.914 18.5029C148.169 18.0745 148.504 17.735 148.919 17.4844C149.334 17.2292 149.778 17.1016 150.252 17.1016C150.753 17.1016 151.211 17.2292 151.626 17.4844C152.036 17.7441 152.364 18.0837 152.61 18.5029C152.861 18.9222 152.986 19.3757 152.986 19.8633C152.986 20.1686 152.932 20.4808 152.822 20.7998C152.717 21.1143 152.572 21.3945 152.385 21.6406L149.726 25.291H152.87C152.911 25.291 152.932 25.3092 152.932 25.3457V26.9316C152.932 26.9772 152.911 27 152.87 27ZM156.869 27.1367C156.277 27.1367 155.75 27.0091 155.29 26.7539C154.834 26.4987 154.477 26.1592 154.217 25.7354C153.962 25.307 153.834 24.8376 153.834 24.3271L153.848 19.8906C153.848 19.3711 153.978 18.904 154.237 18.4893C154.493 18.07 154.848 17.735 155.304 17.4844C155.759 17.2292 156.281 17.1016 156.869 17.1016C157.471 17.1016 157.995 17.2269 158.441 17.4775C158.888 17.7282 159.239 18.0654 159.494 18.4893C159.754 18.9085 159.884 19.3757 159.884 19.8906L159.897 24.3271C159.897 24.833 159.77 25.3001 159.515 25.7285C159.255 26.1569 158.897 26.4987 158.441 26.7539C157.99 27.0091 157.466 27.1367 156.869 27.1367ZM158.202 24.3271L158.188 19.8906C158.188 19.5625 158.065 19.2959 157.819 19.0908C157.578 18.8857 157.261 18.7832 156.869 18.7832C156.468 18.7832 156.147 18.8857 155.905 19.0908C155.664 19.2959 155.543 19.5625 155.543 19.8906V24.3271C155.543 24.6735 155.664 24.9469 155.905 25.1475C156.147 25.348 156.468 25.4482 156.869 25.4482C157.261 25.4482 157.58 25.348 157.826 25.1475C158.077 24.9469 158.202 24.6735 158.202 24.3271ZM165.981 27H160.759C160.713 27 160.69 26.9772 160.69 26.9316V25.3457C160.69 25.3275 160.7 25.3092 160.718 25.291L164.177 20.5469C164.241 20.4603 164.293 20.3509 164.334 20.2188C164.38 20.082 164.402 19.9635 164.402 19.8633C164.402 19.5898 164.304 19.3392 164.108 19.1113C163.912 18.8835 163.664 18.7695 163.363 18.7695C163.076 18.7695 162.832 18.8789 162.632 19.0977C162.431 19.3164 162.331 19.5944 162.331 19.9316V20.6152C162.331 20.6608 162.308 20.6836 162.263 20.6836H160.69C160.654 20.6836 160.636 20.6608 160.636 20.6152V19.9316C160.636 19.4076 160.766 18.9313 161.025 18.5029C161.281 18.0745 161.616 17.735 162.03 17.4844C162.445 17.2292 162.889 17.1016 163.363 17.1016C163.865 17.1016 164.323 17.2292 164.737 17.4844C165.147 17.7441 165.476 18.0837 165.722 18.5029C165.972 18.9222 166.098 19.3757 166.098 19.8633C166.098 20.1686 166.043 20.4808 165.934 20.7998C165.829 21.1143 165.683 21.3945 165.496 21.6406L162.837 25.291H165.981C166.022 25.291 166.043 25.3092 166.043 25.3457V26.9316C166.043 26.9772 166.022 27 165.981 27ZM172.134 27H166.911C166.866 27 166.843 26.9772 166.843 26.9316V25.3457C166.843 25.3275 166.852 25.3092 166.87 25.291L170.329 20.5469C170.393 20.4603 170.445 20.3509 170.486 20.2188C170.532 20.082 170.555 19.9635 170.555 19.8633C170.555 19.5898 170.457 19.3392 170.261 19.1113C170.065 18.8835 169.816 18.7695 169.516 18.7695C169.229 18.7695 168.985 18.8789 168.784 19.0977C168.584 19.3164 168.483 19.5944 168.483 19.9316V20.6152C168.483 20.6608 168.461 20.6836 168.415 20.6836H166.843C166.806 20.6836 166.788 20.6608 166.788 20.6152V19.9316C166.788 19.4076 166.918 18.9313 167.178 18.5029C167.433 18.0745 167.768 17.735 168.183 17.4844C168.597 17.2292 169.042 17.1016 169.516 17.1016C170.017 17.1016 170.475 17.2292 170.89 17.4844C171.3 17.7441 171.628 18.0837 171.874 18.5029C172.125 18.9222 172.25 19.3757 172.25 19.8633C172.25 20.1686 172.195 20.4808 172.086 20.7998C171.981 21.1143 171.835 21.3945 171.648 21.6406L168.989 25.291H172.134C172.175 25.291 172.195 25.3092 172.195 25.3457V26.9316C172.195 26.9772 172.175 27 172.134 27Z" fill="#094067"/>
<path d="M1 43L196 43" stroke="#094067" stroke-linecap="round"/>
<path d="M27.8809 62H26.5215C26.4902 62 26.4746 61.9805 26.4746 61.9414L26.498 53.6973C26.498 53.666 26.5137 53.6504 26.5449 53.6504H28.0098C28.041 53.6504 28.0684 53.666 28.0918 53.6973L29.1875 55.2793L30.2773 53.6973C30.3008 53.666 30.3301 53.6504 30.3652 53.6504H31.8359C31.8711 53.6504 31.8887 53.666 31.8887 53.6973L31.9121 61.9414C31.9121 61.9805 31.8965 62 31.8652 62H30.5059C30.4746 62 30.459 61.9805 30.459 61.9414L30.4473 55.8184L29.1875 57.6465L27.9395 55.8184L27.9277 61.9414C27.9277 61.9805 27.9121 62 27.8809 62ZM35.4219 62H34.0449C34.0176 62 34.0039 61.9844 34.0039 61.9531L34.0156 58.543L32.4102 53.6973C32.4023 53.666 32.4141 53.6504 32.4453 53.6504H33.7812C33.8203 53.6504 33.8438 53.666 33.8516 53.6973L34.7363 56.9258L35.6387 53.6973C35.6465 53.666 35.666 53.6504 35.6973 53.6504H37.0449C37.0762 53.6504 37.0879 53.666 37.0801 53.6973L35.457 58.4961L35.4688 61.9531C35.4688 61.9844 35.4531 62 35.4219 62ZM42.8926 62.1172C42.4668 62.1172 42.0742 62.0078 41.7148 61.7891C41.3594 61.5703 41.0742 61.2793 40.8594 60.916C40.6484 60.5488 40.543 60.1465 40.543 59.709V59.1582C40.543 59.1152 40.5625 59.0938 40.6016 59.0938H41.9492C41.9805 59.0938 41.9961 59.1152 41.9961 59.1582V59.709C41.9961 59.9707 42.084 60.1973 42.2598 60.3887C42.4355 60.5762 42.6465 60.6699 42.8926 60.6699C43.1426 60.6699 43.3555 60.5742 43.5312 60.3828C43.707 60.1875 43.7949 59.9629 43.7949 59.709C43.7949 59.416 43.6035 59.1602 43.2207 58.9414C43.1582 58.9023 43.0762 58.8555 42.9746 58.8008C42.877 58.7422 42.7598 58.6758 42.623 58.6016C42.4863 58.5273 42.3535 58.4551 42.2246 58.3848C42.0957 58.3105 41.9707 58.2402 41.8496 58.1738C41.4121 57.916 41.0859 57.5938 40.8711 57.207C40.6602 56.8164 40.5547 56.3789 40.5547 55.8945C40.5547 55.4492 40.6641 55.0469 40.8828 54.6875C41.1016 54.332 41.3867 54.0508 41.7383 53.8438C42.0938 53.6328 42.4785 53.5273 42.8926 53.5273C43.3184 53.5273 43.709 53.6328 44.0645 53.8438C44.4199 54.0586 44.7031 54.3438 44.9141 54.6992C45.1289 55.0547 45.2363 55.4531 45.2363 55.8945V56.8789C45.2363 56.9102 45.2207 56.9258 45.1895 56.9258H43.8418C43.8105 56.9258 43.7949 56.9102 43.7949 56.8789L43.7832 55.8945C43.7832 55.6133 43.6953 55.3848 43.5195 55.209C43.3438 55.0332 43.1348 54.9453 42.8926 54.9453C42.6465 54.9453 42.4355 55.0391 42.2598 55.2266C42.084 55.4141 41.9961 55.6367 41.9961 55.8945C41.9961 56.1562 42.0508 56.375 42.1602 56.5508C42.2734 56.7266 42.4785 56.8945 42.7754 57.0547C42.8066 57.0703 42.8789 57.1094 42.9922 57.1719C43.1055 57.2344 43.2305 57.3047 43.3672 57.3828C43.5078 57.457 43.6348 57.5254 43.748 57.5879C43.8613 57.6465 43.9297 57.6816 43.9531 57.6934C44.3516 57.916 44.666 58.1895 44.8965 58.5137C45.1309 58.8379 45.248 59.2363 45.248 59.709C45.248 60.166 45.1426 60.5762 44.9316 60.9395C44.7168 61.3027 44.4316 61.5898 44.0762 61.8008C43.7207 62.0117 43.3262 62.1172 42.8926 62.1172ZM48.6406 62H47.2871C47.252 62 47.2344 61.9805 47.2344 61.9414V55.0977H45.6758C45.6367 55.0977 45.6172 55.0781 45.6172 55.0391L45.6289 53.6973C45.6289 53.666 45.6445 53.6504 45.6758 53.6504H50.2344C50.2773 53.6504 50.2988 53.666 50.2988 53.6973V55.0391C50.2988 55.0781 50.2832 55.0977 50.252 55.0977H48.6758L48.6875 61.9414C48.6875 61.9805 48.6719 62 48.6406 62ZM52.3027 62H50.9434C50.9043 62 50.8848 61.9805 50.8848 61.9414L50.8965 53.6973C50.8965 53.666 50.9121 53.6504 50.9434 53.6504H52.291C52.3223 53.6504 52.3379 53.666 52.3379 53.6973L52.3496 61.9414C52.3496 61.9805 52.334 62 52.3027 62ZM57.3301 62H53.4512C53.4199 62 53.4043 61.9805 53.4043 61.9414L53.416 53.709C53.416 53.6699 53.4355 53.6504 53.4746 53.6504H54.8105C54.8496 53.6504 54.8691 53.6699 54.8691 53.709L54.8574 60.5234H57.3301C57.3691 60.5234 57.3887 60.543 57.3887 60.582V61.9414C57.3887 61.9805 57.3691 62 57.3301 62ZM62.0996 62H58.2207C58.1895 62 58.1738 61.9805 58.1738 61.9414L58.1855 53.709C58.1855 53.6699 58.2051 53.6504 58.2441 53.6504H59.5801C59.6191 53.6504 59.6387 53.6699 59.6387 53.709L59.627 60.5234H62.0996C62.1387 60.5234 62.1582 60.543 62.1582 60.582V61.9414C62.1582 61.9805 62.1387 62 62.0996 62ZM68.2695 62.1172C67.8477 62.1172 67.457 62.0078 67.0977 61.7891C66.7383 61.5703 66.4512 61.2773 66.2363 60.9102C66.0254 60.5391 65.9199 60.1348 65.9199 59.6973L65.9434 53.6973C65.9434 53.666 65.959 53.6504 65.9902 53.6504H67.3379C67.3691 53.6504 67.3848 53.666 67.3848 53.6973V59.6973C67.3848 59.9668 67.4707 60.1973 67.6426 60.3887C67.8145 60.5762 68.0234 60.6699 68.2695 60.6699C68.5273 60.6699 68.7422 60.5762 68.9141 60.3887C69.0859 60.1973 69.1719 59.9668 69.1719 59.6973V53.6973C69.1719 53.666 69.1875 53.6504 69.2188 53.6504H70.5664C70.5977 53.6504 70.6133 53.666 70.6133 53.6973L70.6367 59.6973C70.6367 60.1387 70.5312 60.5449 70.3203 60.916C70.1055 61.2832 69.8203 61.5762 69.4648 61.7949C69.1094 62.0098 68.7109 62.1172 68.2695 62.1172ZM72.8867 62H71.6855C71.623 62 71.5918 61.9727 71.5918 61.918L71.5801 53.7441C71.5801 53.6816 71.6113 53.6504 71.6738 53.6504H72.7578L74.7852 58.3789L74.7266 53.7441C74.7266 53.6816 74.7617 53.6504 74.832 53.6504H76.0215C76.0684 53.6504 76.0918 53.6816 76.0918 53.7441L76.1035 61.9297C76.1035 61.9766 76.084 62 76.0449 62H74.9902L72.9102 57.582L72.998 61.9062C72.998 61.9688 72.9609 62 72.8867 62ZM79.707 62H78.3535C78.3184 62 78.3008 61.9805 78.3008 61.9414V55.0977H76.7422C76.7031 55.0977 76.6836 55.0781 76.6836 55.0391L76.6953 53.6973C76.6953 53.666 76.7109 53.6504 76.7422 53.6504H81.3008C81.3438 53.6504 81.3652 53.666 81.3652 53.6973V55.0391C81.3652 55.0781 81.3496 55.0977 81.3184 55.0977H79.7422L79.7539 61.9414C79.7539 61.9805 79.7383 62 79.707 62ZM83.3691 62H82.0098C81.9707 62 81.9512 61.9805 81.9512 61.9414L81.9629 53.6973C81.9629 53.666 81.9785 53.6504 82.0098 53.6504H83.3574C83.3887 53.6504 83.4043 53.666 83.4043 53.6973L83.416 61.9414C83.416 61.9805 83.4004 62 83.3691 62ZM87.0312 62H85.6777C85.6426 62 85.625 61.9805 85.625 61.9414V55.0977H84.0664C84.0273 55.0977 84.0078 55.0781 84.0078 55.0391L84.0195 53.6973C84.0195 53.666 84.0352 53.6504 84.0664 53.6504H88.625C88.668 53.6504 88.6895 53.666 88.6895 53.6973V55.0391C88.6895 55.0781 88.6738 55.0977 88.6426 55.0977H87.0664L87.0781 61.9414C87.0781 61.9805 87.0625 62 87.0312 62ZM93.2012 62H89.3223C89.291 62 89.2754 61.9805 89.2754 61.9414L89.2871 53.709C89.2871 53.6699 89.3066 53.6504 89.3457 53.6504H90.6816C90.7207 53.6504 90.7402 53.6699 90.7402 53.709L90.7285 60.5234H93.2012C93.2402 60.5234 93.2598 60.543 93.2598 60.582V61.9414C93.2598 61.9805 93.2402 62 93.2012 62ZM97.9707 62H94.0918C94.0605 62 94.0449 61.9805 94.0449 61.9414L94.0566 53.6973C94.0566 53.666 94.0723 53.6504 94.1035 53.6504H97.959C97.9902 53.6504 98.0059 53.6699 98.0059 53.709V55.0508C98.0059 55.082 97.9902 55.0977 97.959 55.0977H95.498V56.9727H97.959C97.9902 56.9727 98.0059 56.9883 98.0059 57.0195L98.0176 58.3789C98.0176 58.4102 98.002 58.4258 97.9707 58.4258H95.498V60.5234H97.9707C98.002 60.5234 98.0176 60.543 98.0176 60.582V61.9531C98.0176 61.9844 98.002 62 97.9707 62ZM101.293 61.9883L99.1426 62C99.1035 62 99.084 61.9805 99.084 61.9414L99.1074 53.6973C99.1074 53.666 99.123 53.6504 99.1543 53.6504L101.398 53.6387C101.844 53.627 102.246 53.7285 102.605 53.9434C102.969 54.1582 103.258 54.4492 103.473 54.8164C103.691 55.1797 103.801 55.582 103.801 56.0234V59.4688C103.801 59.9297 103.689 60.3516 103.467 60.7344C103.24 61.1133 102.939 61.416 102.564 61.6426C102.189 61.8652 101.766 61.9805 101.293 61.9883ZM101.398 55.0742L100.561 55.0859L100.549 60.5234H101.293C101.59 60.5234 101.84 60.4199 102.043 60.2129C102.246 60.0059 102.348 59.7578 102.348 59.4688V56.0117C102.348 55.7578 102.254 55.5371 102.066 55.3496C101.879 55.1582 101.656 55.0664 101.398 55.0742ZM109.268 62H107.908C107.877 62 107.861 61.9805 107.861 61.9414L107.885 53.6973C107.885 53.666 107.9 53.6504 107.932 53.6504H109.396C109.428 53.6504 109.455 53.666 109.479 53.6973L110.574 55.2793L111.664 53.6973C111.688 53.666 111.717 53.6504 111.752 53.6504H113.223C113.258 53.6504 113.275 53.666 113.275 53.6973L113.299 61.9414C113.299 61.9805 113.283 62 113.252 62H111.893C111.861 62 111.846 61.9805 111.846 61.9414L111.834 55.8184L110.574 57.6465L109.326 55.8184L109.314 61.9414C109.314 61.9805 109.299 62 109.268 62ZM116.516 62.1172C116.094 62.1172 115.703 62.0078 115.344 61.7891C114.984 61.5703 114.697 61.2773 114.482 60.9102C114.271 60.5391 114.166 60.1348 114.166 59.6973L114.189 53.6973C114.189 53.666 114.205 53.6504 114.236 53.6504H115.584C115.615 53.6504 115.631 53.666 115.631 53.6973V59.6973C115.631 59.9668 115.717 60.1973 115.889 60.3887C116.061 60.5762 116.27 60.6699 116.516 60.6699C116.773 60.6699 116.988 60.5762 117.16 60.3887C117.332 60.1973 117.418 59.9668 117.418 59.6973V53.6973C117.418 53.666 117.434 53.6504 117.465 53.6504H118.812C118.844 53.6504 118.859 53.666 118.859 53.6973L118.883 59.6973C118.883 60.1387 118.777 60.5449 118.566 60.916C118.352 61.2832 118.066 61.5762 117.711 61.7949C117.355 62.0098 116.957 62.1172 116.516 62.1172ZM121.865 62.1172C121.439 62.1172 121.047 62.0078 120.688 61.7891C120.332 61.5703 120.047 61.2793 119.832 60.916C119.621 60.5488 119.516 60.1465 119.516 59.709V59.1582C119.516 59.1152 119.535 59.0938 119.574 59.0938H120.922C120.953 59.0938 120.969 59.1152 120.969 59.1582V59.709C120.969 59.9707 121.057 60.1973 121.232 60.3887C121.408 60.5762 121.619 60.6699 121.865 60.6699C122.115 60.6699 122.328 60.5742 122.504 60.3828C122.68 60.1875 122.768 59.9629 122.768 59.709C122.768 59.416 122.576 59.1602 122.193 58.9414C122.131 58.9023 122.049 58.8555 121.947 58.8008C121.85 58.7422 121.732 58.6758 121.596 58.6016C121.459 58.5273 121.326 58.4551 121.197 58.3848C121.068 58.3105 120.943 58.2402 120.822 58.1738C120.385 57.916 120.059 57.5938 119.844 57.207C119.633 56.8164 119.527 56.3789 119.527 55.8945C119.527 55.4492 119.637 55.0469 119.855 54.6875C120.074 54.332 120.359 54.0508 120.711 53.8438C121.066 53.6328 121.451 53.5273 121.865 53.5273C122.291 53.5273 122.682 53.6328 123.037 53.8438C123.393 54.0586 123.676 54.3438 123.887 54.6992C124.102 55.0547 124.209 55.4531 124.209 55.8945V56.8789C124.209 56.9102 124.193 56.9258 124.162 56.9258H122.814C122.783 56.9258 122.768 56.9102 122.768 56.8789L122.756 55.8945C122.756 55.6133 122.668 55.3848 122.492 55.209C122.316 55.0332 122.107 54.9453 121.865 54.9453C121.619 54.9453 121.408 55.0391 121.232 55.2266C121.057 55.4141 120.969 55.6367 120.969 55.8945C120.969 56.1562 121.023 56.375 121.133 56.5508C121.246 56.7266 121.451 56.8945 121.748 57.0547C121.779 57.0703 121.852 57.1094 121.965 57.1719C122.078 57.2344 122.203 57.3047 122.34 57.3828C122.48 57.457 122.607 57.5254 122.721 57.5879C122.834 57.6465 122.902 57.6816 122.926 57.6934C123.324 57.916 123.639 58.1895 123.869 58.5137C124.104 58.8379 124.221 59.2363 124.221 59.709C124.221 60.166 124.115 60.5762 123.904 60.9395C123.689 61.3027 123.404 61.5898 123.049 61.8008C122.693 62.0117 122.299 62.1172 121.865 62.1172ZM126.471 62H125.111C125.072 62 125.053 61.9805 125.053 61.9414L125.064 53.6973C125.064 53.666 125.08 53.6504 125.111 53.6504H126.459C126.49 53.6504 126.506 53.666 126.506 53.6973L126.518 61.9414C126.518 61.9805 126.502 62 126.471 62ZM129.781 62.1172C129.348 62.1172 128.951 62.0078 128.592 61.7891C128.236 61.5703 127.953 61.2773 127.742 60.9102C127.535 60.5391 127.432 60.127 127.432 59.6738L127.443 55.9297C127.443 55.4844 127.545 55.082 127.748 54.7227C127.951 54.3594 128.23 54.0684 128.586 53.8496C128.945 53.627 129.344 53.5156 129.781 53.5156C130.227 53.5156 130.623 53.623 130.971 53.8379C131.322 54.0527 131.602 54.3438 131.809 54.7109C132.02 55.0742 132.125 55.4805 132.125 55.9297V56.4805C132.125 56.5117 132.109 56.5273 132.078 56.5273H130.73C130.699 56.5273 130.684 56.5117 130.684 56.4805V55.9297C130.684 55.6641 130.598 55.4355 130.426 55.2441C130.254 55.0527 130.039 54.957 129.781 54.957C129.496 54.957 129.277 55.0547 129.125 55.25C128.973 55.4453 128.896 55.6719 128.896 55.9297V59.6738C128.896 59.9668 128.982 60.207 129.154 60.3945C129.326 60.5781 129.535 60.6699 129.781 60.6699C130.039 60.6699 130.254 60.5684 130.426 60.3652C130.598 60.1582 130.684 59.9277 130.684 59.6738V59.1172C130.684 59.0859 130.699 59.0703 130.73 59.0703H132.09C132.121 59.0703 132.137 59.0859 132.137 59.1172V59.6738C132.137 60.123 132.031 60.5332 131.82 60.9043C131.605 61.2715 131.322 61.5664 130.971 61.7891C130.619 62.0078 130.223 62.1172 129.781 62.1172ZM137.533 62H136.186C136.146 62 136.127 61.9805 136.127 61.9414L136.15 53.6973C136.15 53.666 136.166 53.6504 136.197 53.6504H138.506C139.24 53.6504 139.82 53.875 140.246 54.3242C140.676 54.7695 140.891 55.377 140.891 56.1465C140.891 56.709 140.779 57.1992 140.557 57.6172C140.33 58.0312 140.037 58.3516 139.678 58.5781C139.318 58.8047 138.928 58.918 138.506 58.918H137.592V61.9414C137.592 61.9805 137.572 62 137.533 62ZM138.506 55.0742L137.592 55.0859V57.4648H138.506C138.76 57.4648 138.98 57.3438 139.168 57.1016C139.355 56.8555 139.449 56.5371 139.449 56.1465C139.449 55.834 139.365 55.5781 139.197 55.3789C139.029 55.1758 138.799 55.0742 138.506 55.0742ZM143.111 62H141.752C141.721 62 141.705 61.9805 141.705 61.9414L141.729 53.6973C141.729 53.666 141.744 53.6504 141.775 53.6504H144.201C144.635 53.6504 145.033 53.7559 145.396 53.9668C145.76 54.1777 146.049 54.4609 146.264 54.8164C146.482 55.1719 146.592 55.5742 146.592 56.0234C146.592 56.3164 146.547 56.582 146.457 56.8203C146.367 57.0586 146.262 57.2598 146.141 57.4238C146.023 57.5879 145.916 57.709 145.818 57.7871C146.252 58.2676 146.469 58.832 146.469 59.4805L146.48 61.9414C146.48 61.9805 146.461 62 146.422 62H145.062C145.031 62 145.016 61.9883 145.016 61.9648V59.4805C145.016 59.1914 144.914 58.9414 144.711 58.7305C144.508 58.5195 144.258 58.4141 143.961 58.4141H143.17L143.158 61.9414C143.158 61.9805 143.143 62 143.111 62ZM144.201 55.0859H143.17V56.9727H144.201C144.447 56.9727 144.666 56.8809 144.857 56.6973C145.053 56.5137 145.15 56.2891 145.15 56.0234C145.15 55.7695 145.057 55.5508 144.869 55.3672C144.682 55.1797 144.459 55.0859 144.201 55.0859ZM149.715 62.1172C149.289 62.1172 148.896 62.0078 148.537 61.7891C148.182 61.5703 147.895 61.2793 147.676 60.916C147.461 60.5488 147.354 60.1465 147.354 59.709L147.365 55.9062C147.365 55.4609 147.473 55.0605 147.688 54.7051C147.898 54.3457 148.184 54.0586 148.543 53.8438C148.902 53.625 149.293 53.5156 149.715 53.5156C150.152 53.5156 150.545 53.623 150.893 53.8379C151.244 54.0527 151.525 54.3418 151.736 54.7051C151.951 55.0645 152.059 55.4648 152.059 55.9062L152.07 59.709C152.07 60.1465 151.965 60.5469 151.754 60.9102C151.539 61.2773 151.254 61.5703 150.898 61.7891C150.543 62.0078 150.148 62.1172 149.715 62.1172ZM149.715 60.6699C149.957 60.6699 150.168 60.5723 150.348 60.377C150.527 60.1777 150.617 59.9551 150.617 59.709L150.605 55.9062C150.605 55.6406 150.521 55.416 150.354 55.2324C150.186 55.0488 149.973 54.957 149.715 54.957C149.469 54.957 149.258 55.0469 149.082 55.2266C148.906 55.4062 148.818 55.6328 148.818 55.9062V59.709C148.818 59.9707 148.906 60.1973 149.082 60.3887C149.258 60.5762 149.469 60.6699 149.715 60.6699ZM154.947 62.1172C154.506 62.1172 154.105 62.0117 153.746 61.8008C153.391 61.5898 153.109 61.2988 152.902 60.9277C152.699 60.5527 152.598 60.1348 152.598 59.6738V59.1172C152.598 59.0859 152.613 59.0703 152.645 59.0703H154.004C154.035 59.0703 154.051 59.0918 154.051 59.1348V59.6738C154.051 59.9668 154.135 60.207 154.303 60.3945C154.471 60.5781 154.686 60.6699 154.947 60.6699C155.189 60.6699 155.398 60.5703 155.574 60.3711C155.75 60.168 155.838 59.9355 155.838 59.6738V53.709C155.838 53.6777 155.854 53.6621 155.885 53.6621H157.232C157.264 53.6621 157.279 53.6816 157.279 53.7207L157.291 59.6738C157.291 60.1113 157.186 60.5156 156.975 60.8867C156.76 61.2617 156.477 61.5605 156.125 61.7832C155.773 62.0059 155.381 62.1172 154.947 62.1172ZM162.119 62H158.24C158.209 62 158.193 61.9805 158.193 61.9414L158.205 53.6973C158.205 53.666 158.221 53.6504 158.252 53.6504H162.107C162.139 53.6504 162.154 53.6699 162.154 53.709V55.0508C162.154 55.082 162.139 55.0977 162.107 55.0977H159.646V56.9727H162.107C162.139 56.9727 162.154 56.9883 162.154 57.0195L162.166 58.3789C162.166 58.4102 162.15 58.4258 162.119 58.4258H159.646V60.5234H162.119C162.15 60.5234 162.166 60.543 162.166 60.582V61.9531C162.166 61.9844 162.15 62 162.119 62ZM165.441 62.1172C165.008 62.1172 164.611 62.0078 164.252 61.7891C163.896 61.5703 163.613 61.2773 163.402 60.9102C163.195 60.5391 163.092 60.127 163.092 59.6738L163.104 55.9297C163.104 55.4844 163.205 55.082 163.408 54.7227C163.611 54.3594 163.891 54.0684 164.246 53.8496C164.605 53.627 165.004 53.5156 165.441 53.5156C165.887 53.5156 166.283 53.623 166.631 53.8379C166.982 54.0527 167.262 54.3438 167.469 54.7109C167.68 55.0742 167.785 55.4805 167.785 55.9297V56.4805C167.785 56.5117 167.77 56.5273 167.738 56.5273H166.391C166.359 56.5273 166.344 56.5117 166.344 56.4805V55.9297C166.344 55.6641 166.258 55.4355 166.086 55.2441C165.914 55.0527 165.699 54.957 165.441 54.957C165.156 54.957 164.938 55.0547 164.785 55.25C164.633 55.4453 164.557 55.6719 164.557 55.9297V59.6738C164.557 59.9668 164.643 60.207 164.814 60.3945C164.986 60.5781 165.195 60.6699 165.441 60.6699C165.699 60.6699 165.914 60.5684 166.086 60.3652C166.258 60.1582 166.344 59.9277 166.344 59.6738V59.1172C166.344 59.0859 166.359 59.0703 166.391 59.0703H167.75C167.781 59.0703 167.797 59.0859 167.797 59.1172V59.6738C167.797 60.123 167.691 60.5332 167.48 60.9043C167.266 61.2715 166.982 61.5664 166.631 61.7891C166.279 62.0078 165.883 62.1172 165.441 62.1172ZM171.23 62H169.877C169.842 62 169.824 61.9805 169.824 61.9414V55.0977H168.266C168.227 55.0977 168.207 55.0781 168.207 55.0391L168.219 53.6973C168.219 53.666 168.234 53.6504 168.266 53.6504H172.824C172.867 53.6504 172.889 53.666 172.889 53.6973V55.0391C172.889 55.0781 172.873 55.0977 172.842 55.0977H171.266L171.277 61.9414C171.277 61.9805 171.262 62 171.23 62Z" fill="#094067"/>
</svg>
