<svg width="108" height="65" viewBox="0 0 108 65" fill="none" xmlns="http://www.w3.org/2000/svg">
<path d="M15.9609 44H11.8828C11.7891 44 11.7422 43.9414 11.7422 43.8242L11.8125 19.0918C11.8125 18.998 11.8594 18.9512 11.9531 18.9512H16.3477C16.4414 18.9512 16.5234 18.998 16.5938 19.0918L19.8809 23.8379L23.1504 19.0918C23.2207 18.998 23.3086 18.9512 23.4141 18.9512H27.8262C27.9316 18.9512 27.9844 18.998 27.9844 19.0918L28.0547 43.8242C28.0547 43.9414 28.0078 44 27.9141 44H23.8359C23.7422 44 23.6953 43.9414 23.6953 43.8242L23.6602 25.4551L19.8809 30.9395L16.1367 25.4551L16.1016 43.8242C16.1016 43.9414 16.0547 44 15.9609 44ZM37.1953 44.3516C35.918 44.3516 34.7402 44.0234 33.6621 43.3672C32.5957 42.7109 31.7402 41.8379 31.0957 40.748C30.4629 39.6465 30.1465 38.4395 30.1465 37.127V35.4746C30.1465 35.3457 30.2051 35.2812 30.3223 35.2812H34.3652C34.459 35.2812 34.5059 35.3457 34.5059 35.4746V37.127C34.5059 37.9121 34.7695 38.5918 35.2969 39.166C35.8242 39.7285 36.457 40.0098 37.1953 40.0098C37.9453 40.0098 38.584 39.7227 39.1113 39.1484C39.6387 38.5625 39.9023 37.8887 39.9023 37.127C39.9023 36.248 39.3281 35.4805 38.1797 34.8242C37.9922 34.707 37.7461 34.5664 37.4414 34.4023C37.1484 34.2266 36.7969 34.0273 36.3867 33.8047C35.9766 33.582 35.5781 33.3652 35.1914 33.1543C34.8047 32.9316 34.4297 32.7207 34.0664 32.5215C32.7539 31.748 31.7754 30.7812 31.1309 29.6211C30.498 28.4492 30.1816 27.1367 30.1816 25.6836C30.1816 24.3477 30.5098 23.1406 31.166 22.0625C31.8223 20.9961 32.6777 20.1523 33.7324 19.5312C34.7988 18.8984 35.9531 18.582 37.1953 18.582C38.4727 18.582 39.6445 18.8984 40.7109 19.5312C41.7773 20.1758 42.627 21.0312 43.2598 22.0977C43.9043 23.1641 44.2266 24.3594 44.2266 25.6836V28.6367C44.2266 28.7305 44.1797 28.7773 44.0859 28.7773H40.043C39.9492 28.7773 39.9023 28.7305 39.9023 28.6367L39.8672 25.6836C39.8672 24.8398 39.6035 24.1543 39.0762 23.627C38.5488 23.0996 37.9219 22.8359 37.1953 22.8359C36.457 22.8359 35.8242 23.1172 35.2969 23.6797C34.7695 24.2422 34.5059 24.9102 34.5059 25.6836C34.5059 26.4688 34.6699 27.125 34.998 27.6523C35.3379 28.1797 35.9531 28.6836 36.8438 29.1641C36.9375 29.2109 37.1543 29.3281 37.4941 29.5156C37.834 29.7031 38.209 29.9141 38.6191 30.1484C39.041 30.3711 39.4219 30.5762 39.7617 30.7637C40.1016 30.9395 40.3066 31.0449 40.377 31.0801C41.5723 31.748 42.5156 32.5684 43.207 33.541C43.9102 34.5137 44.2617 35.709 44.2617 37.127C44.2617 38.498 43.9453 39.7285 43.3125 40.8184C42.668 41.9082 41.8125 42.7695 40.7461 43.4023C39.6797 44.0352 38.4961 44.3516 37.1953 44.3516ZM53.3848 44.3516C52.1191 44.3516 50.9473 44.0234 49.8691 43.3672C48.791 42.7109 47.9297 41.832 47.2852 40.7305C46.6523 39.6172 46.3359 38.4043 46.3359 37.0918L46.4062 19.0918C46.4062 18.998 46.4531 18.9512 46.5469 18.9512H50.5898C50.6836 18.9512 50.7305 18.998 50.7305 19.0918V37.0918C50.7305 37.9004 50.9883 38.5918 51.5039 39.166C52.0195 39.7285 52.6465 40.0098 53.3848 40.0098C54.1582 40.0098 54.8027 39.7285 55.3184 39.166C55.834 38.5918 56.0918 37.9004 56.0918 37.0918V19.0918C56.0918 18.998 56.1387 18.9512 56.2324 18.9512H60.2754C60.3691 18.9512 60.416 18.998 60.416 19.0918L60.4863 37.0918C60.4863 38.416 60.1699 39.6348 59.5371 40.748C58.8926 41.8496 58.0371 42.7285 56.9707 43.3848C55.9043 44.0293 54.709 44.3516 53.3848 44.3516ZM67.5352 44H63.457C63.3633 44 63.3164 43.9414 63.3164 43.8242L63.3867 19.0918C63.3867 18.998 63.4336 18.9512 63.5273 18.9512H67.9219C68.0156 18.9512 68.0977 18.998 68.168 19.0918L71.4551 23.8379L74.7246 19.0918C74.7949 18.998 74.8828 18.9512 74.9883 18.9512H79.4004C79.5059 18.9512 79.5586 18.998 79.5586 19.0918L79.6289 43.8242C79.6289 43.9414 79.582 44 79.4883 44H75.4102C75.3164 44 75.2695 43.9414 75.2695 43.8242L75.2344 25.4551L71.4551 30.9395L67.7109 25.4551L67.6758 43.8242C67.6758 43.9414 67.6289 44 67.5352 44ZM86.8711 44H82.8281C82.7109 44 82.6523 43.9414 82.6523 43.8242L82.7227 19.0918C82.7227 18.998 82.7695 18.9512 82.8633 18.9512H89.7891C91.9922 18.9512 93.7324 19.625 95.0098 20.9727C96.2988 22.3086 96.9434 24.1309 96.9434 26.4395C96.9434 28.127 96.6094 29.5977 95.9414 30.8516C95.2617 32.0938 94.3828 33.0547 93.3047 33.7344C92.2266 34.4141 91.0547 34.7539 89.7891 34.7539H87.0469V43.8242C87.0469 43.9414 86.9883 44 86.8711 44ZM89.7891 23.2227L87.0469 23.2578V30.3945H89.7891C90.5508 30.3945 91.2129 30.0312 91.7754 29.3047C92.3379 28.5664 92.6191 27.6113 92.6191 26.4395C92.6191 25.502 92.3672 24.7344 91.8633 24.1367C91.3594 23.5273 90.668 23.2227 89.7891 23.2227Z" fill="#094067"/>
</svg>
